<?xml version="1.0" standalone="no"?>
<!DOCTYPE svg PUBLIC "-//W3C//DTD SVG 20010904//EN"
 "http://www.w3.org/TR/2001/REC-SVG-20010904/DTD/svg10.dtd">
<svg version="1.0" xmlns="http://www.w3.org/2000/svg"
 width="174.000000pt" height="174.000000pt" viewBox="0 0 174.000000 174.000000"
 preserveAspectRatio="xMidYMid meet">
<metadata>
Created by potrace 1.14, written by Peter Selinger 2001-2017
</metadata>
<g transform="translate(0.000000,174.000000) scale(0.100000,-0.100000)"
fill="#000000" stroke="none">
<path d="M0 870 l0 -810 870 0 870 0 0 810 0 810 -870 0 -870 0 0 -810z m588
292 c49 -43 51 -106 4 -154 -46 -49 -123 -33 -157 32 -23 44 -18 69 19 106 27
27 42 34 73 34 24 0 48 -7 61 -18z m434 -12 c27 -28 30 -36 25 -75 -3 -33 -15
-57 -43 -91 -22 -25 -50 -61 -64 -78 -14 -18 -41 -53 -62 -77 -20 -24 -89
-109 -154 -189 -65 -80 -127 -153 -139 -162 -11 -10 -37 -17 -61 -18 -36 0
-47 5 -73 35 -55 63 -51 70 139 305 78 96 167 207 198 245 93 117 115 135 162
135 33 0 48 -6 72 -30z m427 -5 c35 -40 38 -62 16 -105 -34 -65 -111 -81 -157
-32 -34 36 -42 65 -28 107 15 45 44 65 96 65 35 0 47 -5 73 -35z m-224 -209
c41 -17 55 -42 55 -95 0 -30 -7 -49 -28 -73 -16 -18 -66 -80 -112 -138 -123
-154 -141 -170 -190 -170 -33 0 -48 6 -72 30 -27 28 -30 36 -25 75 3 33 15 57
43 91 22 25 50 61 64 78 30 39 94 117 134 164 45 52 75 61 131 38z"/>
</g>
</svg>
